<svg width="18" height="18" viewBox="0 0 18 18" fill="none" xmlns="http://www.w3.org/2000/svg"><path d="M11.94 9.376H6.628a.531.531 0 000 1.062h5.312a.531.531 0 000-1.062zm1.063-3.188H5.565a.531.531 0 000 1.063h7.438a.531.531 0 000-1.063zM9.284.344c-4.694 0-8.5 3.33-8.5 7.438 0 2.348 1.246 4.438 3.188 5.8v3.762l3.723-2.259a9.75 9.75 0 001.59.134c4.694 0 8.5-3.33 8.5-7.437 0-4.108-3.806-7.438-8.5-7.438zm0 13.813a8.57 8.57 0 01-1.795-.195l-2.502 1.503.034-2.463c-1.917-1.154-3.174-3.06-3.174-5.22 0-3.52 3.33-6.375 7.437-6.375 4.108 0 7.438 2.854 7.438 6.375 0 3.52-3.33 6.375-7.438 6.375z" fill="#fff"/></svg>