<svg width="25" height="25" viewBox="0 0 25 25" fill="none" xmlns="http://www.w3.org/2000/svg"><path d="M16.406 13.281H8.594a.782.782 0 000 1.563h7.812a.782.782 0 000-1.563zm1.563-4.687H7.03a.782.782 0 000 1.562h10.94a.781.781 0 000-1.562zM12.5 0C5.597 0 0 4.897 0 10.938c0 3.452 1.832 6.525 4.688 8.53V25l5.475-3.323c.758.125 1.538.198 2.337.198 6.904 0 12.5-4.897 12.5-10.938C25 4.897 19.404 0 12.5 0zm0 20.313c-.912 0-1.794-.107-2.64-.287l-3.679 2.21.05-3.623c-2.82-1.696-4.668-4.499-4.668-7.675 0-5.178 4.896-9.376 10.937-9.376 6.04 0 10.938 4.198 10.938 9.376 0 5.177-4.897 9.374-10.938 9.374z" fill="#35AEC1"/></svg>