<svg width="14" height="14" viewBox="0 0 14 14" fill="none" xmlns="http://www.w3.org/2000/svg"><path d="M13.396 9.518c.287-.366.425-.758.407-1.163a1.785 1.785 0 00-.38-1.007c.19-.474.263-1.22-.372-1.8-.466-.425-1.256-.615-2.351-.562a9.162 9.162 0 00-1.44.184h-.004c-.146.027-.301.059-.46.094-.011-.187.021-.653.367-1.701.41-1.247.386-2.202-.076-2.84C8.6.053 7.825 0 7.597 0c-.22 0-.422.09-.566.258-.325.377-.287 1.074-.246 1.396C6.4 2.691 5.315 5.232 4.4 5.937a.314.314 0 00-.046.041c-.27.284-.451.592-.574.861a1.208 1.208 0 00-.58-.146H1.413C.74 6.693.195 7.24.195 7.91v4.757a1.22 1.22 0 001.218 1.218H3.2c.26 0 .504-.082.703-.223l.688.082c.105.015 1.979.252 3.902.214.349.026.677.041.981.041.524 0 .98-.041 1.361-.123.896-.19 1.508-.57 1.818-1.13.238-.428.238-.852.2-1.121.582-.527.685-1.11.664-1.52a1.978 1.978 0 00-.12-.588zM1.413 13.095a.428.428 0 01-.427-.427v-4.76c0-.238.193-.428.427-.428H3.2c.237 0 .428.193.428.428v4.757a.428.428 0 01-.428.427H1.413v.003zm11.234-3.92a.393.393 0 00-.053.477c0 .003.12.208.135.49.02.383-.164.723-.55 1.012a.399.399 0 00-.136.451c0 .003.126.39-.079.755-.196.352-.632.604-1.294.744-.53.114-1.25.135-2.134.065h-.04c-1.883.04-3.786-.205-3.807-.208h-.003l-.295-.035c.017-.082.026-.17.026-.258v-4.76c0-.126-.02-.25-.056-.363.053-.197.2-.633.545-1.005 1.314-1.042 2.6-4.558 2.655-4.71a.37.37 0 00.018-.196c-.05-.328-.032-.73.038-.85.155.004.574.047.825.396.3.413.287 1.15-.035 2.128-.491 1.49-.532 2.275-.143 2.62.193.173.45.182.638.115.179-.041.349-.076.51-.103l.038-.009c.898-.196 2.509-.316 3.068.194.474.433.137 1.007.1 1.068a.391.391 0 00.07.51c.002.003.31.292.324.682.012.26-.11.527-.365.79z" fill="#006FBA"/></svg>