<svg width="16" height="15" viewBox="0 0 16 15" fill="none" xmlns="http://www.w3.org/2000/svg"><path d="M14.365 10.87v1.946a1.296 1.296 0 01-1.415 1.298 12.839 12.839 0 01-5.599-1.992 12.651 12.651 0 01-3.893-3.893 12.84 12.84 0 01-1.992-5.625 1.298 1.298 0 011.291-1.415h1.947a1.298 1.298 0 011.298 1.116 8.33 8.33 0 00.454 1.823 1.298 1.298 0 01-.292 1.37l-.824.824a10.381 10.381 0 003.893 3.892l.824-.824a1.297 1.297 0 011.369-.292c.588.22 1.2.373 1.823.455a1.297 1.297 0 011.116 1.317z" stroke="#35AEC1" stroke-width="1.5" stroke-linecap="round" stroke-linejoin="round"/></svg>