<svg width="21" height="21" viewBox="0 0 21 21" fill="none" xmlns="http://www.w3.org/2000/svg"><path d="M10.277 2.863h9.432a.677.677 0 00.677-.677v-.677a.677.677 0 00-.677-.677h-9.432a.677.677 0 00-.677.677v.677c0 .374.303.677.677.677zm9.432 2.233h-8.161a.677.677 0 00-.677.677v.677c0 .373.303.676.677.676h8.161a.677.677 0 00.677-.676v-.677a.677.677 0 00-.677-.677zm0 4.264h-6.89a.677.677 0 00-.677.677v.676c0 .374.303.677.677.677h6.89a.677.677 0 00.677-.677v-.676a.677.677 0 00-.677-.677zm0 4.737H14.09a.677.677 0 00-.677.677v.677c0 .373.303.676.677.676h5.619a.677.677 0 00.677-.676v-.677a.677.677 0 00-.677-.677zm0 4.263h-4.348a.677.677 0 00-.677.678v.676c0 .374.303.677.677.677h4.348a.677.677 0 00.677-.677v-.676a.677.677 0 00-.677-.677zM.198 5.966l.479.479a.677.677 0 00.957 0l2.328-2.328v15.259c0 .374.303.677.676.677h.677a.677.677 0 00.677-.677V4.117L8.32 6.445a.677.677 0 00.957 0l.478-.479a.677.677 0 000-.957l-4.3-4.3a.677.677 0 00-.957 0l-4.3 4.3a.677.677 0 000 .957z" fill="#35AEC1"/></svg>