<svg width="18" height="18" viewBox="0 0 18 18" fill="none" xmlns="http://www.w3.org/2000/svg">
<path d="M11.9404 9.37573H6.62793C6.33468 9.37573 6.09668 9.61373 6.09668 9.90698C6.09668 10.2002 6.33468 10.4382 6.62793 10.4382H11.9404C12.2337 10.4382 12.4717 10.2002 12.4717 9.90698C12.4717 9.61373 12.2337 9.37573 11.9404 9.37573ZM13.0029 6.18823H5.56543C5.27218 6.18823 5.03418 6.42623 5.03418 6.71948C5.03418 7.01273 5.27218 7.25073 5.56543 7.25073H13.0029C13.2962 7.25073 13.5342 7.01273 13.5342 6.71948C13.5342 6.42623 13.2962 6.18823 13.0029 6.18823ZM9.28418 0.344482C4.59007 0.344482 0.78418 3.67434 0.78418 7.78198C0.78418 10.1296 2.02996 12.2195 3.97168 13.5827V17.3445L7.69521 15.0851C8.21054 15.1701 8.74071 15.2195 9.28418 15.2195C13.9788 15.2195 17.7842 11.8896 17.7842 7.78198C17.7842 3.67434 13.9788 0.344482 9.28418 0.344482ZM9.28418 14.157C8.66368 14.157 8.06443 14.0847 7.48854 13.962L4.9874 15.4654L5.02087 13.0015C3.10362 11.8482 1.84668 9.94207 1.84668 7.78198C1.84668 4.2614 5.17654 1.40698 9.28418 1.40698C13.3918 1.40698 16.7217 4.2614 16.7217 7.78198C16.7217 11.3026 13.3918 14.157 9.28418 14.157Z" fill="white"/>
</svg>
