<svg width="25" height="25" viewBox="0 0 25 25" fill="none" xmlns="http://www.w3.org/2000/svg">
<path d="M16.4062 13.2812H8.59375C8.1625 13.2812 7.8125 13.6312 7.8125 14.0625C7.8125 14.4937 8.1625 14.8438 8.59375 14.8438H16.4062C16.8375 14.8438 17.1875 14.4937 17.1875 14.0625C17.1875 13.6312 16.8375 13.2812 16.4062 13.2812ZM17.9688 8.59375H7.03125C6.6 8.59375 6.25 8.94375 6.25 9.375C6.25 9.80625 6.6 10.1562 7.03125 10.1562H17.9688C18.4 10.1562 18.75 9.80625 18.75 9.375C18.75 8.94375 18.4 8.59375 17.9688 8.59375ZM12.5 0C5.59689 0 0 4.89685 0 10.9375C0 14.3899 1.83203 17.4633 4.6875 19.468V25L10.1633 21.6773C10.9211 21.8024 11.7008 21.875 12.5 21.875C19.4039 21.875 25 16.9781 25 10.9375C25 4.89685 19.4039 0 12.5 0ZM12.5 20.3125C11.5875 20.3125 10.7062 20.2062 9.85935 20.0258L6.18121 22.2367L6.23043 18.6133C3.41095 16.9172 1.5625 14.1141 1.5625 10.9375C1.5625 5.76017 6.45935 1.5625 12.5 1.5625C18.5406 1.5625 23.4375 5.76017 23.4375 10.9375C23.4375 16.1148 18.5406 20.3125 12.5 20.3125Z" fill="#35AEC1"/>
</svg>
