<svg width="16" height="15" viewBox="0 0 16 15" fill="none" xmlns="http://www.w3.org/2000/svg">
<path d="M14.3649 10.8698V12.8163C14.3657 12.997 14.3286 13.1758 14.2562 13.3414C14.1839 13.507 14.0777 13.6556 13.9445 13.7778C13.8114 13.8999 13.6542 13.9929 13.483 14.0508C13.3118 14.1087 13.1304 14.1302 12.9505 14.1139C10.9539 13.897 9.03609 13.2148 7.35108 12.122C5.7834 11.1259 4.45428 9.79675 3.45811 8.22906C2.36157 6.5364 1.67918 4.60924 1.4662 2.60372C1.44999 2.4243 1.47131 2.24346 1.52882 2.07273C1.58632 1.902 1.67874 1.74512 1.8002 1.61206C1.92166 1.47901 2.06949 1.3727 2.23428 1.29991C2.39908 1.22712 2.57722 1.18944 2.75737 1.18927H4.70386C5.01874 1.18617 5.324 1.29768 5.56275 1.503C5.8015 1.70833 5.95745 1.99346 6.00152 2.30526C6.08367 2.92818 6.23604 3.5398 6.4557 4.12847C6.54299 4.3607 6.56189 4.61309 6.51014 4.85573C6.45839 5.09837 6.33817 5.32109 6.16372 5.4975L5.33971 6.32151C6.26336 7.94588 7.60831 9.29084 9.23268 10.2145L10.0567 9.39047C10.2331 9.21602 10.4558 9.0958 10.6985 9.04405C10.9411 8.99231 11.1935 9.0112 11.4257 9.09849C12.0144 9.31816 12.626 9.47052 13.2489 9.55268C13.5641 9.59714 13.852 9.75589 14.0577 9.99874C14.2635 10.2416 14.3728 10.5516 14.3649 10.8698Z" stroke="#35AEC1" stroke-width="1.5" stroke-linecap="round" stroke-linejoin="round"/>
</svg>
