<svg width="21" height="21" viewBox="0 0 21 21" fill="none" xmlns="http://www.w3.org/2000/svg">
<path d="M10.2771 2.8627H19.709C20.0828 2.8627 20.3857 2.5597 20.3857 2.18592V1.50915C20.3857 1.13537 20.0828 0.832376 19.709 0.832376H10.2771C9.90341 0.832376 9.60035 1.13537 9.60035 1.50915V2.18592C9.60035 2.5597 9.90334 2.8627 10.2771 2.8627Z" fill="#35AEC1"/>
<path d="M19.709 5.09605L11.548 5.09605C11.1743 5.09605 10.8713 5.39904 10.8713 5.77282V6.44959C10.8713 6.82337 11.1743 7.12636 11.548 7.12636L19.709 7.12636C20.0828 7.12636 20.3857 6.82337 20.3857 6.44959L20.3857 5.77282C20.3857 5.39904 20.0828 5.09605 19.709 5.09605Z" fill="#35AEC1"/>
<path d="M19.709 9.35972L12.8191 9.35972C12.4454 9.35972 12.1423 9.66271 12.1423 10.0365V10.7133C12.1423 11.087 12.4454 11.39 12.8191 11.39L19.709 11.39C20.0828 11.39 20.3857 11.087 20.3857 10.7133V10.0365C20.3857 9.66271 20.0828 9.35972 19.709 9.35972Z" fill="#35AEC1"/>
<path d="M19.709 14.0971H14.0901C13.7163 14.0971 13.4133 14.4001 13.4133 14.7739V15.4507C13.4133 15.8245 13.7163 16.1274 14.0901 16.1274H19.709C20.0828 16.1274 20.3857 15.8245 20.3857 15.4507V14.7739C20.3857 14.4001 20.0828 14.0971 19.709 14.0971Z" fill="#35AEC1"/>
<path d="M19.709 18.3608H15.3611C14.9874 18.3608 14.6843 18.6638 14.6843 19.0376V19.7143C14.6843 20.0881 14.9874 20.3911 15.3611 20.3911H19.709C20.0828 20.3911 20.3857 20.0881 20.3857 19.7143V19.0376C20.3857 18.6638 20.0828 18.3608 19.709 18.3608Z" fill="#35AEC1"/>
<path d="M0.198355 5.96631L0.676834 6.44486C0.803728 6.57175 0.975901 6.64308 1.15538 6.64308C1.33486 6.64308 1.50696 6.57175 1.63392 6.44486L3.96161 4.11723L3.96161 19.376C3.96161 19.7497 4.26461 20.0527 4.63839 20.0527H5.31516C5.68887 20.0527 5.99193 19.7497 5.99193 19.376L5.99193 4.1173L8.31962 6.44492C8.44659 6.57189 8.61869 6.64315 8.79817 6.64315C8.97765 6.64315 9.14982 6.57182 9.27672 6.44492L9.75519 5.96638C10.0195 5.7021 10.0195 5.27356 9.75519 5.00928L5.45532 0.709341C5.32836 0.582445 5.15625 0.511114 4.97678 0.511114C4.79729 0.511114 4.62519 0.582445 4.49823 0.709341L0.198355 5.00928C-0.0659256 5.27356 -0.0659256 5.70203 0.198355 5.96631Z" fill="#35AEC1"/>
</svg>
