<svg width="85" height="72" viewBox="0 0 85 72" fill="none" xmlns="http://www.w3.org/2000/svg">
<g clip-path="url(#clip0)">
<path d="M44.8175 51.66L25.0215 53.5258V6.76891L44.8175 4.90308V51.66Z" fill="url(#paint0_linear)"/>
<path d="M44.8175 51.66L64.6136 53.5258V6.76891L44.8175 4.90308V51.66Z" fill="url(#paint1_linear)"/>
<path d="M84.0214 51.66L64.6135 53.5258V6.76891L84.0214 4.90308V51.66Z" fill="url(#paint2_linear)"/>
<path d="M44.8877 50.3621L25.6522 52.1549V7.22909L44.8877 5.43628V50.3621Z" fill="#F5F5F5"/>
<path d="M44.8877 50.3621L64.1232 52.1549V7.22909L44.8877 5.43628V50.3621Z" fill="white"/>
<path d="M83.3587 50.3621L64.1232 52.1549V7.22909L83.3587 5.43628V50.3621Z" fill="#F5F5F5"/>
<path opacity="0.3" d="M44.8877 9.56226L30.2772 10.0766V12.0803V14.8223V16.826H42.6803V14.3856L44.8877 14.3079L48.2513 15.3496V10.6039L44.8877 9.56226Z" fill="#6C63FF"/>
<path opacity="0.3" d="M44.8877 47.3037L28.4902 48.8856V42.8744L44.8877 41.2925V47.3037Z" fill="#6C63FF"/>
<path opacity="0.3" d="M43.093 28.6968L26.6955 30.2787V24.2675L43.093 22.6855V28.6968Z" fill="#6C63FF"/>
<path opacity="0.3" d="M61.7056 42.6636H54.5579V48.1475H61.7056V42.6636Z" fill="#6C63FF"/>
<path opacity="0.3" d="M59.3791 29.792H52.2314V35.2759H59.3791V29.792Z" fill="#6C63FF"/>
<path opacity="0.3" d="M62.3038 12.6521H55.1562V18.136H62.3038V12.6521Z" fill="#6C63FF"/>
<path opacity="0.3" d="M80.6258 45.6165L69.4839 46.5657V39.289L80.6258 38.3398V45.6165Z" fill="#6C63FF"/>
<path opacity="0.3" d="M79.2963 20.0067L68.1545 20.9558V13.6791L79.2963 12.73V20.0067Z" fill="#6C63FF"/>
<path d="M78.3373 6.48732C78.3373 9.09625 73.7918 16.4844 73.7918 16.4844C73.7918 16.4844 69.2463 9.09624 69.2463 6.48732C69.2463 3.87839 71.2814 1.76343 73.7918 1.76343C76.3022 1.76343 78.3373 3.87838 78.3373 6.48732Z" fill="url(#paint3_linear)"/>
<path d="M73.7918 7.58604C74.5507 7.58604 75.166 6.94664 75.166 6.15789C75.166 5.36914 74.5507 4.72974 73.7918 4.72974C73.0328 4.72974 72.4175 5.36914 72.4175 6.15789C72.4175 6.94664 73.0328 7.58604 73.7918 7.58604Z" fill="url(#paint4_linear)"/>
<path d="M77.998 6.4957C77.998 8.82638 73.7919 15.4265 73.7919 15.4265C73.7919 15.4265 69.5857 8.82638 69.5857 6.4957C69.5857 5.37647 70.0288 4.30308 70.8177 3.51166C71.6065 2.72025 72.6763 2.27563 73.7919 2.27563C74.9074 2.27563 75.9773 2.72025 76.7661 3.51166C77.5549 4.30308 77.998 5.37647 77.998 6.4957Z" fill="#37B1C4"/>
<path d="M73.7918 7.47721C74.4941 7.47721 75.0634 6.906 75.0634 6.20137C75.0634 5.49675 74.4941 4.92554 73.7918 4.92554C73.0895 4.92554 72.5201 5.49675 72.5201 6.20137C72.5201 6.906 73.0895 7.47721 73.7918 7.47721Z" fill="white"/>
<path d="M40.0012 36.0507C40.0012 38.6781 35.3208 46.1185 35.3208 46.1185C35.3208 46.1185 30.6404 38.6781 30.6404 36.0507C30.6404 33.4234 32.7359 31.2935 35.3208 31.2935C37.9057 31.2935 40.0012 33.4234 40.0012 36.0507Z" fill="url(#paint5_linear)"/>
<path d="M35.3208 37.157C36.1023 37.157 36.7358 36.5131 36.7358 35.7188C36.7358 34.9244 36.1023 34.2805 35.3208 34.2805C34.5393 34.2805 33.9058 34.9244 33.9058 35.7188C33.9058 36.5131 34.5393 37.157 35.3208 37.157Z" fill="url(#paint6_linear)"/>
<path d="M39.5269 36.0245C39.5269 38.3551 35.3207 44.9553 35.3207 44.9553C35.3207 44.9553 31.1146 38.3552 31.1146 36.0245C31.1143 35.4701 31.223 34.9212 31.4343 34.409C31.6455 33.8968 31.9553 33.4314 32.3459 33.0394C32.7365 32.6473 33.2003 32.3363 33.7107 32.1241C34.2211 31.9119 34.7682 31.8027 35.3207 31.8027C35.8732 31.8027 36.4203 31.9119 36.9308 32.1241C37.4412 32.3363 37.9049 32.6473 38.2955 33.0394C38.6861 33.4314 38.9959 33.8968 39.2072 34.409C39.4185 34.9212 39.5271 35.4701 39.5269 36.0245H39.5269Z" fill="#37B1C4"/>
<path d="M35.3208 37.0058C36.0231 37.0058 36.5924 36.4346 36.5924 35.7299C36.5924 35.0253 36.0231 34.4541 35.3208 34.4541C34.6185 34.4541 34.0491 35.0253 34.0491 35.7299C34.0491 36.4346 34.6185 37.0058 35.3208 37.0058Z" fill="white"/>
<path d="M62.3268 36.358C62.3268 38.6886 58.1207 45.2888 58.1207 45.2888C58.1207 45.2888 53.9145 38.6886 53.9145 36.358C53.9143 35.8036 54.0229 35.2547 54.2342 34.7425C54.4455 34.2303 54.7553 33.7649 55.1459 33.3728C55.5365 32.9808 56.0002 32.6698 56.5106 32.4576C57.0211 32.2454 57.5682 32.1362 58.1207 32.1362C58.6732 32.1362 59.2203 32.2454 59.7307 32.4576C60.2411 32.6698 60.7049 32.9808 61.0955 33.3728C61.4861 33.7649 61.7959 34.2303 62.0071 34.7425C62.2184 35.2547 62.327 35.8036 62.3268 36.358Z" fill="#37B1C4"/>
<path d="M58.1208 37.3393C58.8231 37.3393 59.3924 36.7681 59.3924 36.0634C59.3924 35.3588 58.8231 34.7876 58.1208 34.7876C57.4185 34.7876 56.8492 35.3588 56.8492 36.0634C56.8492 36.7681 57.4185 37.3393 58.1208 37.3393Z" fill="white"/>
<path d="M78.8119 33.6903C78.8119 36.021 74.6058 42.6211 74.6058 42.6211C74.6058 42.6211 70.3996 36.021 70.3996 33.6903C70.3996 32.571 70.8427 31.4977 71.6316 30.7062C72.4204 29.9148 73.4902 29.4702 74.6058 29.4702C75.7213 29.4702 76.7912 29.9148 77.58 30.7062C78.3688 31.4977 78.8119 32.571 78.8119 33.6903Z" fill="#37B1C4"/>
<path d="M74.6059 34.6715C75.3082 34.6715 75.8775 34.1003 75.8775 33.3957C75.8775 32.6911 75.3082 32.1199 74.6059 32.1199C73.9036 32.1199 73.3342 32.6911 73.3342 33.3957C73.3342 34.1003 73.9036 34.6715 74.6059 34.6715Z" fill="white"/>
<path d="M41.654 4.74592C41.654 7.0766 37.4478 13.6768 37.4478 13.6768C37.4478 13.6768 33.2416 7.0766 33.2416 4.74592C33.2414 4.19159 33.3501 3.64265 33.5613 3.13045C33.7726 2.61826 34.0824 2.15284 34.473 1.76079C34.8636 1.36875 35.3274 1.05775 35.8378 0.845564C36.3482 0.633381 36.8953 0.52417 37.4478 0.52417C38.0003 0.52417 38.5474 0.633381 39.0578 0.845564C39.5683 1.05775 40.032 1.36875 40.4226 1.76079C40.8132 2.15284 41.123 2.61826 41.3343 3.13045C41.5456 3.64265 41.6542 4.19159 41.654 4.74592H41.654Z" fill="#37B1C4"/>
<path d="M37.4479 5.72745C38.1502 5.72745 38.7195 5.15624 38.7195 4.45162C38.7195 3.74699 38.1502 3.17578 37.4479 3.17578C36.7456 3.17578 36.1763 3.74699 36.1763 4.45162C36.1763 5.15624 36.7456 5.72745 37.4479 5.72745Z" fill="white"/>
</g>
<path d="M14.9073 71.222C23.1096 71.222 29.7589 70.3358 29.7589 69.2426C29.7589 68.1494 23.1096 67.2632 14.9073 67.2632C6.70496 67.2632 0.0556641 68.1494 0.0556641 69.2426C0.0556641 70.3358 6.70496 71.222 14.9073 71.222Z" fill="#E6E6E6"/>
<path d="M7.66327 36.2466V55.0962L8.14049 67.2649H12.0776L11.8389 55.5734L13.3899 44.3591L16.0146 53.7839L17.6849 67.0263L22.4571 66.7877L19.9517 53.1874L19.2359 36.2466H7.66327Z" fill="#2F2E41"/>
<path d="M8.73707 66.6682V67.8612C8.73707 67.8612 5.99306 70.4859 8.25985 70.4859C10.5266 70.4859 10.646 69.8894 10.646 69.8894C10.646 69.8894 11.4811 69.8894 11.4811 69.6507V66.7875L8.73707 66.6682Z" fill="#2F2E41"/>
<path d="M21.3836 66.6682V67.8612C21.3836 67.8612 24.1276 70.4859 21.8608 70.4859C19.594 70.4859 19.4747 69.8894 19.4747 69.8894C19.4747 69.8894 18.6396 69.8894 18.6396 69.6507V66.7875L21.3836 66.6682Z" fill="#2F2E41"/>
<path d="M12.5549 20.2602C14.1362 20.2602 15.4182 18.9782 15.4182 17.3969C15.4182 15.8156 14.1362 14.5337 12.5549 14.5337C10.9735 14.5337 9.69153 15.8156 9.69153 17.3969C9.69153 18.9782 10.9735 20.2602 12.5549 20.2602Z" fill="#FFB8B8"/>
<path d="M10.2883 18.3513L10.4076 22.6462L14.2253 22.5269V19.1864L10.2883 18.3513Z" fill="#FFB8B8"/>
<path d="M12.0777 22.169L10.2882 20.8567L9.57233 36.9624L18.043 36.7238L16.0148 22.6462L14.2252 20.9314L12.0777 22.169Z" fill="#CFCCE0"/>
<path d="M9.69162 21.8108L10.3434 20.3389L10.5268 23.0038C10.5268 23.0038 12.0777 28.0145 11.9584 32.4286C11.8391 36.8428 12.5549 47.222 11.6005 47.3413C10.6461 47.4606 6.58968 47.6992 6.58968 46.8641C6.58968 46.029 6.35107 23.8389 6.35107 23.8389L9.69162 21.8108Z" fill="#2F2E41"/>
<path d="M14.2249 20.4988L15.6566 22.0497L19.2357 23.362C19.2357 23.362 19.2357 38.6326 19.9516 42.2116C20.6674 45.7907 21.9797 46.1486 20.3095 46.2679C18.6392 46.3872 18.7585 45.7907 18.7585 45.7907C18.7585 45.7907 19.9516 39.8256 18.4006 38.6326C16.8496 37.4396 13.867 30.5201 14.1056 26.7024C14.3442 22.8848 13.9863 20.4988 14.2249 20.4988Z" fill="#2F2E41"/>
<path d="M5.39667 42.4504L5.63528 43.5241C5.63528 43.5241 5.75458 48.0576 7.42485 47.4611C9.09512 46.8646 7.30555 43.1662 7.30555 43.1662V42.4504H5.39667Z" fill="#FFB8B8"/>
<path d="M20.25 39.766L18.878 41.4959L18.4008 39.9449L18.8184 38.2151L20.25 39.766Z" fill="#FFB8B8"/>
<path d="M17.6849 23.2428L18.8183 23.209C19.0177 23.1923 19.2166 23.2463 19.3802 23.3616C19.5438 23.4768 19.6616 23.6459 19.7131 23.8393C19.9517 24.5551 20.7868 31.8325 20.7868 31.8325C20.7868 31.8325 21.5026 33.0255 21.264 34.815L20.4289 41.4959L18.0428 38.8713L18.4007 32.9062L17.6849 23.2428Z" fill="#2F2E41"/>
<path d="M6.94764 23.839L6.63085 23.6692C6.63085 23.6692 4.91945 24.3162 5.03876 24.7934C5.15806 25.2706 4.08432 41.9728 4.44223 42.5693C4.80015 43.1658 7.66347 42.6886 7.66347 42.6886L6.94764 23.839Z" fill="#2F2E41"/>
<path d="M15.2739 15.6189C15.2739 15.6189 16.2291 14.3237 14.6003 13.954C14.6003 13.954 13.2339 12.8399 11.8856 13.6859C11.8856 13.6859 10.8747 13.2765 10.4626 13.999C10.4626 13.999 10.3691 13.5938 10.8559 13.4043C10.8559 13.4043 9.84501 12.9948 9.65744 14.2723C9.65744 14.2723 9.02053 15.4838 9.30104 16.6995C9.58155 17.9152 9.71257 18.0649 9.71257 18.0649C9.71257 18.0649 9.32814 15.546 11.1442 15.6822C12.9603 15.8183 15.1336 15.0111 15.0771 16.4383C15.0205 17.8655 15.2638 18.2927 15.2638 18.2927C15.2638 18.2927 16.9119 16.4467 15.2739 15.6189Z" fill="#2F2E41"/>
<defs>
<linearGradient id="paint0_linear" x1="34.9195" y1="53.5258" x2="34.9195" y2="4.90306" gradientUnits="userSpaceOnUse">
<stop stop-color="#808080" stop-opacity="0.25"/>
<stop offset="0.53514" stop-color="#808080" stop-opacity="0.12"/>
<stop offset="1" stop-color="#808080" stop-opacity="0.1"/>
</linearGradient>
<linearGradient id="paint1_linear" x1="8888.05" y1="38645.3" x2="8888.05" y2="3196.19" gradientUnits="userSpaceOnUse">
<stop stop-color="#808080" stop-opacity="0.25"/>
<stop offset="0.53514" stop-color="#808080" stop-opacity="0.12"/>
<stop offset="1" stop-color="#808080" stop-opacity="0.1"/>
</linearGradient>
<linearGradient id="paint2_linear" x1="14457.6" y1="38645.3" x2="14457.6" y2="3196.19" gradientUnits="userSpaceOnUse">
<stop stop-color="#808080" stop-opacity="0.25"/>
<stop offset="0.53514" stop-color="#808080" stop-opacity="0.12"/>
<stop offset="1" stop-color="#808080" stop-opacity="0.1"/>
</linearGradient>
<linearGradient id="paint3_linear" x1="73.7918" y1="16.4844" x2="73.7918" y2="1.76343" gradientUnits="userSpaceOnUse">
<stop stop-color="#B3B3B3" stop-opacity="0.25"/>
<stop offset="0.53514" stop-color="#B3B3B3" stop-opacity="0.1"/>
<stop offset="1" stop-color="#B3B3B3" stop-opacity="0.05"/>
</linearGradient>
<linearGradient id="paint4_linear" x1="73.7918" y1="7.58604" x2="73.7918" y2="4.72974" gradientUnits="userSpaceOnUse">
<stop stop-opacity="0.12"/>
<stop offset="0.55135" stop-opacity="0.09"/>
<stop offset="1" stop-opacity="0.02"/>
</linearGradient>
<linearGradient id="paint5_linear" x1="2943.22" y1="10946.7" x2="2943.22" y2="7651.21" gradientUnits="userSpaceOnUse">
<stop stop-color="#B3B3B3" stop-opacity="0.25"/>
<stop offset="0.53514" stop-color="#B3B3B3" stop-opacity="0.1"/>
<stop offset="1" stop-color="#B3B3B3" stop-opacity="0.05"/>
</linearGradient>
<linearGradient id="paint6_linear" x1="35.3208" y1="37.157" x2="35.3208" y2="34.2805" gradientUnits="userSpaceOnUse">
<stop offset="0.00541" stop-opacity="0.12"/>
<stop offset="0.55135" stop-opacity="0.09"/>
<stop offset="1" stop-opacity="0.05"/>
</linearGradient>
<clipPath id="clip0">
<rect width="59" height="53" fill="white" transform="translate(25.0215 0.525879)"/>
</clipPath>
</defs>
</svg>
