<svg width="85" height="72" viewBox="0 0 85 72" fill="none" xmlns="http://www.w3.org/2000/svg"><g clip-path="url(#clip0)"><path d="M44.818 51.66l-19.796 1.866V6.769l19.796-1.866V51.66z" fill="url(#paint0_linear)"/><path d="M44.818 51.66l19.796 1.866V6.769L44.817 4.903V51.66z" fill="url(#paint1_linear)"/><path d="M84.021 51.66l-19.407 1.866V6.769L84.02 4.903V51.66z" fill="url(#paint2_linear)"/><path d="M44.888 50.362l-19.236 1.793V7.229l19.236-1.793v44.926z" fill="#F5F5F5"/><path d="M44.888 50.362l19.235 1.793V7.229L44.888 5.436v44.926z" fill="#fff"/><path d="M83.359 50.362l-19.236 1.793V7.229L83.36 5.436v44.926z" fill="#F5F5F5"/><path opacity=".3" d="M44.888 9.562l-14.61.515v6.749H42.68v-2.44l2.208-.078 3.363 1.042v-4.746l-3.363-1.042zm0 37.742L28.49 48.886v-6.012l16.398-1.582v6.012zm-1.795-18.607l-16.398 1.582v-6.012l16.398-1.581v6.01zm18.613 13.967h-7.148v5.483h7.148v-5.483zM59.38 29.792h-7.15v5.484h7.148v-5.484zm2.924-17.14h-7.148v5.484h7.148v-5.484zm18.322 32.965l-11.142.949v-7.277l11.142-.95v7.278zm-1.33-25.61l-11.142.949v-7.277l11.142-.949v7.277z" fill="#6C63FF"/><path d="M78.337 6.487c0 2.61-4.545 9.997-4.545 9.997s-4.546-7.388-4.546-9.997 2.035-4.724 4.546-4.724c2.51 0 4.545 2.115 4.545 4.724z" fill="url(#paint3_linear)"/><path d="M73.792 7.586c.759 0 1.374-.64 1.374-1.428 0-.789-.615-1.428-1.374-1.428-.76 0-1.374.64-1.374 1.428 0 .789.615 1.428 1.374 1.428z" fill="url(#paint4_linear)"/><path d="M77.998 6.496c0 2.33-4.206 8.93-4.206 8.93s-4.206-6.6-4.206-8.93c0-1.12.443-2.193 1.232-2.984a4.199 4.199 0 015.948 0 4.227 4.227 0 011.232 2.984z" fill="#37B1C4"/><path d="M73.792 7.477c.702 0 1.271-.571 1.271-1.276a1.273 1.273 0 10-2.543 0c0 .705.57 1.276 1.272 1.276z" fill="#fff"/><path d="M40.001 36.05c0 2.628-4.68 10.069-4.68 10.069s-4.68-7.44-4.68-10.068c0-2.628 2.095-4.758 4.68-4.758 2.585 0 4.68 2.13 4.68 4.758z" fill="url(#paint5_linear)"/><path d="M35.32 37.157c.782 0 1.416-.644 1.416-1.438 0-.795-.634-1.438-1.415-1.438-.782 0-1.415.643-1.415 1.438 0 .794.633 1.438 1.415 1.438z" fill="url(#paint6_linear)"/><path d="M39.527 36.025c0 2.33-4.206 8.93-4.206 8.93s-4.206-6.6-4.206-8.93a4.23 4.23 0 011.23-2.986 4.205 4.205 0 012.976-1.236 4.195 4.195 0 012.974 1.236 4.22 4.22 0 011.232 2.986z" fill="#37B1C4"/><path d="M35.32 37.006c.703 0 1.272-.571 1.272-1.276 0-.705-.569-1.276-1.271-1.276-.703 0-1.272.571-1.272 1.276 0 .705.57 1.276 1.272 1.276z" fill="#fff"/><path d="M62.327 36.358c0 2.33-4.206 8.93-4.206 8.93s-4.207-6.6-4.207-8.93a4.232 4.232 0 011.232-2.985 4.206 4.206 0 012.975-1.237 4.194 4.194 0 012.974 1.237 4.22 4.22 0 011.232 2.985z" fill="#37B1C4"/><path d="M58.12 37.34c.703 0 1.272-.572 1.272-1.277a1.273 1.273 0 10-2.543 0c0 .705.57 1.276 1.272 1.276z" fill="#fff"/><path d="M78.812 33.69c0 2.331-4.206 8.931-4.206 8.931s-4.206-6.6-4.206-8.93c0-1.12.443-2.193 1.232-2.985a4.2 4.2 0 015.948 0 4.227 4.227 0 011.232 2.984z" fill="#37B1C4"/><path d="M74.606 34.672c.702 0 1.272-.572 1.272-1.276 0-.705-.57-1.276-1.272-1.276-.702 0-1.272.571-1.272 1.276 0 .704.57 1.276 1.272 1.276z" fill="#fff"/><path d="M41.654 4.746c0 2.33-4.206 8.93-4.206 8.93s-4.206-6.6-4.206-8.93a4.234 4.234 0 011.231-2.985A4.206 4.206 0 0137.448.524a4.194 4.194 0 012.975 1.237 4.222 4.222 0 011.231 2.985z" fill="#37B1C4"/><path d="M37.448 5.727c.702 0 1.271-.57 1.271-1.275s-.569-1.276-1.271-1.276-1.272.571-1.272 1.276c0 .704.57 1.275 1.272 1.275z" fill="#fff"/></g><path d="M14.907 71.222c8.203 0 14.852-.886 14.852-1.98 0-1.093-6.65-1.979-14.852-1.979S.056 68.15.056 69.243s6.649 1.979 14.851 1.979z" fill="#E6E6E6"/><path d="M7.663 36.247v18.85l.477 12.168h3.938l-.24-11.692L13.39 44.36l2.625 9.425 1.67 13.242 4.772-.238-2.505-13.6-.716-16.941H7.663z" fill="#2F2E41"/><path d="M8.737 66.668v1.193s-2.744 2.625-.477 2.625c2.267 0 2.386-.597 2.386-.597s.835 0 .835-.238v-2.864l-2.744-.119zm12.647 0v1.193s2.744 2.625.477 2.625c-2.267 0-2.386-.597-2.386-.597s-.835 0-.835-.238v-2.864l2.744-.119z" fill="#2F2E41"/><path d="M12.555 20.26a2.863 2.863 0 100-5.727 2.863 2.863 0 000 5.727z" fill="#FFB8B8"/><path d="M10.288 18.351l.12 4.295 3.817-.12v-3.34l-3.937-.835z" fill="#FFB8B8"/><path d="M12.078 22.169l-1.79-1.312-.716 16.105 8.471-.238-2.028-14.078-1.79-1.715-2.147 1.238z" fill="#CFCCE0"/><path d="M9.692 21.81l.651-1.471.184 2.665s1.55 5.01 1.431 9.425c-.119 4.414.597 14.793-.357 14.912-.955.12-5.011.358-5.011-.477S6.35 23.84 6.35 23.84l3.34-2.028zm4.533-1.311l1.432 1.55 3.579 1.313s0 15.27.716 18.85c.715 3.579 2.028 3.937.357 4.056-1.67.12-1.55-.477-1.55-.477s1.193-5.965-.358-7.158c-1.551-1.193-4.534-8.113-4.295-11.93.238-3.818-.12-6.204.119-6.204z" fill="#2F2E41"/><path d="M5.397 42.45l.238 1.074s.12 4.534 1.79 3.937c1.67-.596-.12-4.295-.12-4.295v-.716H5.398zm14.853-2.684l-1.372 1.73-.477-1.551.417-1.73 1.432 1.551z" fill="#FFB8B8"/><path d="M17.685 23.243l1.133-.034a.852.852 0 01.895.63c.239.716 1.074 7.994 1.074 7.994s.716 1.193.477 2.982l-.835 6.68-2.386-2.624.358-5.965-.716-9.663zm-10.737.596l-.317-.17s-1.712.647-1.592 1.124c.12.478-.955 17.18-.597 17.776.358.597 3.221.12 3.221.12l-.715-18.85zm8.326-8.22s.955-1.295-.674-1.665c0 0-1.366-1.114-2.714-.268 0 0-1.011-.41-1.423.313 0 0-.094-.405.393-.595 0 0-1.011-.41-1.199.868 0 0-.636 1.212-.356 2.428.28 1.215.412 1.365.412 1.365s-.385-2.519 1.431-2.383c1.816.136 3.99-.67 3.933.756-.056 1.428.187 1.855.187 1.855s1.648-1.846.01-2.674z" fill="#2F2E41"/><defs><linearGradient id="paint0_linear" x1="34.919" y1="53.526" x2="34.919" y2="4.903" gradientUnits="userSpaceOnUse"><stop stop-color="gray" stop-opacity=".25"/><stop offset=".535" stop-color="gray" stop-opacity=".12"/><stop offset="1" stop-color="gray" stop-opacity=".1"/></linearGradient><linearGradient id="paint1_linear" x1="8888.05" y1="38645.3" x2="8888.05" y2="3196.19" gradientUnits="userSpaceOnUse"><stop stop-color="gray" stop-opacity=".25"/><stop offset=".535" stop-color="gray" stop-opacity=".12"/><stop offset="1" stop-color="gray" stop-opacity=".1"/></linearGradient><linearGradient id="paint2_linear" x1="14457.6" y1="38645.3" x2="14457.6" y2="3196.19" gradientUnits="userSpaceOnUse"><stop stop-color="gray" stop-opacity=".25"/><stop offset=".535" stop-color="gray" stop-opacity=".12"/><stop offset="1" stop-color="gray" stop-opacity=".1"/></linearGradient><linearGradient id="paint3_linear" x1="73.792" y1="16.484" x2="73.792" y2="1.763" gradientUnits="userSpaceOnUse"><stop stop-color="#B3B3B3" stop-opacity=".25"/><stop offset=".535" stop-color="#B3B3B3" stop-opacity=".1"/><stop offset="1" stop-color="#B3B3B3" stop-opacity=".05"/></linearGradient><linearGradient id="paint4_linear" x1="73.792" y1="7.586" x2="73.792" y2="4.73" gradientUnits="userSpaceOnUse"><stop stop-opacity=".12"/><stop offset=".551" stop-opacity=".09"/><stop offset="1" stop-opacity=".02"/></linearGradient><linearGradient id="paint5_linear" x1="2943.22" y1="10946.7" x2="2943.22" y2="7651.21" gradientUnits="userSpaceOnUse"><stop stop-color="#B3B3B3" stop-opacity=".25"/><stop offset=".535" stop-color="#B3B3B3" stop-opacity=".1"/><stop offset="1" stop-color="#B3B3B3" stop-opacity=".05"/></linearGradient><linearGradient id="paint6_linear" x1="35.321" y1="37.157" x2="35.321" y2="34.281" gradientUnits="userSpaceOnUse"><stop offset=".005" stop-opacity=".12"/><stop offset=".551" stop-opacity=".09"/><stop offset="1" stop-opacity=".05"/></linearGradient><clipPath id="clip0"><path fill="#fff" transform="translate(25.021 .526)" d="M0 0h59v53H0z"/></clipPath></defs></svg>