<svg width="16" height="20" viewBox="0 0 16 20" fill="none" xmlns="http://www.w3.org/2000/svg"><path d="M7.748 4.611a3.48 3.48 0 00-3.476 3.476 3.48 3.48 0 003.476 3.476 3.48 3.48 0 003.476-3.476A3.48 3.48 0 007.748 4.61zm0 5.488a2.014 2.014 0 01-2.012-2.012c0-1.11.903-2.012 2.012-2.012 1.11 0 2.012.902 2.012 2.012 0 1.11-.902 2.012-2.012 2.012z" fill="#BDBDBD"/><path d="M7.748.587c-4.135 0-7.5 3.364-7.5 7.5v.207c0 2.092 1.2 4.529 3.564 7.244a30.815 30.815 0 003.476 3.398l.46.372.46-.371a30.823 30.823 0 003.476-3.399c2.365-2.715 3.564-5.152 3.564-7.244v-.207c0-4.136-3.364-7.5-7.5-7.5zm6.037 7.707c0 3.535-4.555 7.814-6.037 9.112-1.483-1.299-6.037-5.577-6.037-9.112v-.207A6.043 6.043 0 017.748 2.05a6.043 6.043 0 016.037 6.037v.207z" fill="#BDBDBD"/></svg>