<svg width="18" height="19" viewBox="0 0 18 19" fill="none" xmlns="http://www.w3.org/2000/svg"><g clip-path="url(#clip0)" fill="#898989"><path d="M13.57 9.041a.703.703 0 100-1.406.703.703 0 000 1.406z"/><path d="M15.188 2.361h-.915v-.703a.703.703 0 10-1.406 0v.703H9.668v-.703a.703.703 0 10-1.406 0v.703H5.098v-.703a.703.703 0 10-1.407 0v.703h-.878A2.816 2.816 0 000 5.174v10.969a2.816 2.816 0 002.813 2.812H8.19a.703.703 0 100-1.406H2.812a1.408 1.408 0 01-1.406-1.406V5.173c0-.775.631-1.405 1.407-1.405h.878v.703a.703.703 0 101.407 0v-.703h3.164v.703a.703.703 0 101.406 0v-.703h3.2v.703a.703.703 0 101.405 0v-.703h.915c.775 0 1.406.63 1.406 1.406v4.008a.703.703 0 101.406 0V5.174a2.816 2.816 0 00-2.813-2.813z"/><path d="M13.746 10.447a4.259 4.259 0 00-4.254 4.254 4.259 4.259 0 004.254 4.254A4.259 4.259 0 0018 14.701a4.259 4.259 0 00-4.254-4.254zm0 7.102a2.85 2.85 0 01-2.848-2.848 2.851 2.851 0 012.848-2.848 2.851 2.851 0 012.848 2.848 2.85 2.85 0 01-2.848 2.848z"/><path d="M14.766 13.998h-.317v-.738a.703.703 0 10-1.406 0v1.44c0 .388.315.703.703.703h1.02a.703.703 0 100-1.406zm-4.254-4.957a.703.703 0 100-1.406.703.703 0 000 1.406zM7.453 12.1a.703.703 0 100-1.407.703.703 0 000 1.407zM4.395 9.041a.703.703 0 100-1.406.703.703 0 000 1.406zm0 3.059a.703.703 0 100-1.407.703.703 0 000 1.407zm0 3.058a.703.703 0 100-1.406.703.703 0 000 1.406zm3.058 0a.703.703 0 100-1.406.703.703 0 000 1.406zm0-6.117a.703.703 0 100-1.406.703.703 0 000 1.406z"/></g><defs><clipPath id="clip0"><path fill="#fff" transform="translate(0 .955)" d="M0 0h18v18H0z"/></clipPath></defs></svg>