<svg width="16" height="16" viewBox="0 0 16 16" fill="none" xmlns="http://www.w3.org/2000/svg"><path d="M15.087 11.568v2.125a1.417 1.417 0 01-1.544 1.417 14.02 14.02 0 01-6.113-2.175 13.813 13.813 0 01-4.25-4.25 14.018 14.018 0 01-2.174-6.14A1.417 1.417 0 012.416 1H4.54a1.417 1.417 0 011.417 1.218c.09.68.256 1.348.496 1.99a1.417 1.417 0 01-.319 1.495l-.9.9a11.333 11.333 0 004.25 4.25l.9-.9a1.417 1.417 0 011.495-.318c.642.24 1.31.406 1.99.495a1.416 1.416 0 011.218 1.438z" stroke="#00D1DE" stroke-width="1.5" stroke-linecap="round" stroke-linejoin="round"/></svg>