<svg width="16" height="15" viewBox="0 0 16 15" fill="none" xmlns="http://www.w3.org/2000/svg"><g clip-path="url(#clip0)" fill="#fff"><path d="M15.433.283A.309.309 0 0015.4.18c-.004-.01-.006-.02-.011-.028l-.014-.016a.33.33 0 00-.037-.041.323.323 0 00-.042-.037c-.006-.004-.01-.01-.015-.012-.009-.006-.019-.007-.028-.012a.338.338 0 00-.055-.022.345.345 0 00-.158-.002c-.01.003-.022.002-.033.006L.657 4.907a.325.325 0 00-.012.613L7.35 8.096l2.897 6.707c.052.12.17.197.3.197h.016a.326.326 0 00.295-.227L15.424.423c.003-.011.002-.021.004-.032a.305.305 0 00.005-.108zM1.719 5.233L13.89 1.085 7.514 7.46 1.72 5.234zm8.781 8.511l-2.518-5.83 6.413-6.413L10.5 13.744z"/><path d="M5.558 9.877a.326.326 0 00-.46 0L.53 14.443a.326.326 0 10.461.462l4.566-4.567a.326.326 0 000-.46zm.844 2.283l-2.283 2.283a.326.326 0 10.461.461l2.283-2.283a.326.326 0 10-.461-.46zm-5.64-.748a.325.325 0 00.23-.095l2.283-2.283a.326.326 0 10-.46-.462L.53 10.856a.326.326 0 00.23.556z"/></g><defs><clipPath id="clip0"><path fill="#fff" transform="translate(.435)" d="M0 0h15v15H0z"/></clipPath></defs></svg>