<svg width="16" height="16" viewBox="0 0 16 16" fill="none" xmlns="http://www.w3.org/2000/svg"><path d="M13.206 10.559a7.47 7.47 0 00-2.85-1.788A4.334 4.334 0 007.902.862 4.334 4.334 0 005.45 8.771 7.47 7.47 0 002.6 10.56a7.451 7.451 0 00-2.197 5.303h1.172a6.335 6.335 0 016.328-6.328 6.335 6.335 0 016.328 6.328h1.172c0-2.003-.78-3.886-2.196-5.303zM7.902 8.362a3.168 3.168 0 01-3.164-3.164 3.168 3.168 0 013.164-3.164 3.168 3.168 0 013.164 3.164 3.168 3.168 0 01-3.164 3.164z" fill="#BDBDBD"/></svg>