<svg width="335" height="342" viewBox="0 0 335 342" fill="none" xmlns="http://www.w3.org/2000/svg"><g filter="url(#filter0_ii)" fill="#F6F6F6"><path d="M.686 20.771c0-11.045 8.954-20 20-20h296.549C327.046.771 335 8.725 335 18.537a17.765 17.765 0 01-6.682 13.883l-10.979 8.765c-9.936 7.932-10.046 23-.226 31.077l11.325 9.315A17.988 17.988 0 01335 95.47c0 9.936-8.054 17.99-17.989 17.99H20.686c-11.046 0-20-8.955-20-20V20.772z"/><path d="M.686 93.123H335v228.272c0 11.046-8.954 20-20 20H20.686c-11.046 0-20-8.954-20-20V93.123z"/></g><defs><filter id="filter0_ii" x=".686" y="-3.229" width="339.314" height="348.623" filterUnits="userSpaceOnUse" color-interpolation-filters="sRGB"><feFlood flood-opacity="0" result="BackgroundImageFix"/><feBlend in="SourceGraphic" in2="BackgroundImageFix" result="shape"/><feColorMatrix in="SourceAlpha" values="0 0 0 0 0 0 0 0 0 0 0 0 0 0 0 0 0 0 127 0" result="hardAlpha"/><feOffset dy="4"/><feGaussianBlur stdDeviation="4"/><feComposite in2="hardAlpha" operator="arithmetic" k2="-1" k3="1"/><feColorMatrix values="0 0 0 0 0.558333 0 0 0 0 0.558333 0 0 0 0 0.558333 0 0 0 0.35 0"/><feBlend in2="shape" result="effect1_innerShadow"/><feColorMatrix in="SourceAlpha" values="0 0 0 0 0 0 0 0 0 0 0 0 0 0 0 0 0 0 127 0" result="hardAlpha"/><feOffset dx="5" dy="-4"/><feGaussianBlur stdDeviation="3.5"/><feComposite in2="hardAlpha" operator="arithmetic" k2="-1" k3="1"/><feColorMatrix values="0 0 0 0 1 0 0 0 0 1 0 0 0 0 1 0 0 0 0.85 0"/><feBlend in2="effect1_innerShadow" result="effect2_innerShadow"/></filter></defs></svg>