<svg width="16" height="20" viewBox="0 0 16 20" fill="none" xmlns="http://www.w3.org/2000/svg">
<path d="M7.74805 4.61132C5.83161 4.61132 4.27245 6.17048 4.27245 8.08692C4.27245 10.0034 5.83161 11.5625 7.74805 11.5625C9.66448 11.5625 11.2236 10.0034 11.2236 8.08692C11.2236 6.17048 9.66452 4.61132 7.74805 4.61132ZM7.74805 10.0991C6.63852 10.0991 5.73585 9.19644 5.73585 8.08692C5.73585 6.97739 6.63852 6.07471 7.74805 6.07471C8.85757 6.07471 9.76025 6.97739 9.76025 8.08692C9.76025 9.19644 8.85757 10.0991 7.74805 10.0991Z" fill="#BDBDBD"/>
<path d="M7.74805 0.586914C3.61253 0.586914 0.248047 3.95143 0.248047 8.08692V8.29424C0.248047 10.3857 1.44715 12.823 3.81217 15.5382C5.52662 17.5066 7.21713 18.8791 7.28821 18.9365L7.74805 19.3081L8.20789 18.9366C8.27901 18.8791 9.96951 17.5066 11.6839 15.5382C14.0489 12.823 15.248 10.3858 15.248 8.29427V8.08695C15.248 3.95143 11.8836 0.586914 7.74805 0.586914ZM13.7846 8.29427C13.7846 11.8288 9.23046 16.1075 7.74805 17.4063C6.26523 16.1071 1.71145 11.8286 1.71145 8.29427V8.08695C1.71145 4.75838 4.41948 2.05035 7.74805 2.05035C11.0766 2.05035 13.7846 4.75838 13.7846 8.08695V8.29427Z" fill="#BDBDBD"/>
</svg>
