<svg width="518" height="100" viewBox="0 0 518 100" fill="none" xmlns="http://www.w3.org/2000/svg"><g opacity=".8" filter="url(#filter0_d)"><path d="M15.817 24.182l74.517 30.47 55.446-15.388 81.226 30.354 125.723-45.436L482.691 70.04l20.072 5.623a16.811 16.811 0 01-15.653 10.68H35.817c-11.046 0-20-8.954-20-20V24.182z" fill="url(#paint0_linear)"/></g><path opacity=".8" d="M16.384 35.632l74.517 23.53 55.446-11.883 81.226 23.44 125.724-35.087 129.961 35.413 20.072 4.342a15.058 15.058 0 01-13.43 8.247H36.384c-11.045 0-20-8.954-20-20V35.632z" fill="url(#paint1_linear)" fill-opacity=".4"/><path d="M200.066 47.135a.344.344 0 01-.572-.273v-.078c0-.494.191-.893.572-1.196l1.469-1.183a2 2 0 011.274-.442c.2 0 .369.069.507.208a.689.689 0 01.208.507v8.06a.69.69 0 01-.208.507.688.688 0 01-.507.208.69.69 0 01-.507-.208.692.692 0 01-.208-.507v-7.202c0-.009-.004-.013-.013-.013l-.026.013-1.989 1.599zm-84.014-30.599l-2.366 2.3c-.008.01-.013.018-.013.027 0 .008.005.013.013.013h.247c.841 0 1.495.225 1.963.676.468.442.702 1.079.702 1.91 0 .989-.303 1.756-.91 2.302-.598.546-1.443.819-2.535.819a6.971 6.971 0 01-1.833-.247.872.872 0 01-.468-.312.972.972 0 01-.169-.56c0-.155.065-.277.195-.363a.475.475 0 01.429-.052c.685.242 1.3.364 1.846.364.642 0 1.136-.17 1.482-.507.356-.338.533-.82.533-1.443 0-.529-.19-.919-.572-1.17-.372-.26-.983-.39-1.833-.39h-.364a.559.559 0 01-.39-.156.558.558 0 01-.156-.39c0-.373.13-.68.39-.923l2.392-2.262c.009-.009.013-.018.013-.026 0-.009-.004-.013-.013-.013h-3.432a.567.567 0 01-.416-.17.568.568 0 01-.169-.415c0-.165.057-.304.169-.416a.567.567 0 01.416-.17h4.68c.165 0 .304.057.416.17a.564.564 0 01.169.416c0 .398-.138.728-.416.988z" fill="#D9D9D9"/><ellipse cx="115.995" cy="36.138" rx="2.331" ry="1.685" fill="#D9D9D9"/><path d="M54.47 29.244c-.01.008-.014.017-.014.026 0 .008.005.013.013.013h3.432c.165 0 .304.056.416.169a.566.566 0 01.17.416.565.565 0 01-.17.416.565.565 0 01-.416.169h-4.81a.565.565 0 01-.416-.17.565.565 0 01-.169-.415c0-.382.152-.698.455-.95 1.578-1.273 2.644-2.283 3.198-3.028.564-.754.845-1.487.845-2.197 0-1.11-.589-1.664-1.768-1.664-.58 0-1.222.151-1.924.455a.441.441 0 01-.416-.026.383.383 0 01-.195-.351c0-.217.057-.412.17-.585a.83.83 0 01.467-.351 6.818 6.818 0 012.093-.338c.971 0 1.72.242 2.25.728.537.476.805 1.144.805 2.002 0 .858-.277 1.694-.832 2.509-.546.806-1.607 1.863-3.185 3.172z" fill="#D9D9D9"/><ellipse cx="56.5" cy="42.138" rx="2.331" ry="1.685" fill="#D9D9D9"/><path d="M336.68 7.19c0 .008-.004.013-.013.013v.013c0 .008.004.013.013.013h2.795c.078 0 .117-.035.117-.104V3.043c0-.009-.004-.013-.013-.013-.017 0-.026.004-.026.013L336.68 7.19zm-.871 1.183a.55.55 0 01-.403-.17.549.549 0 01-.169-.402c0-.382.108-.728.325-1.04l3.627-5.226c.26-.382.628-.572 1.105-.572.191 0 .355.069.494.208a.674.674 0 01.208.494v5.46c0 .069.039.104.117.104h.832a.55.55 0 01.403.169.549.549 0 01.169.403.55.55 0 01-.169.403.55.55 0 01-.403.169h-.832c-.078 0-.117.039-.117.117v1.26a.676.676 0 01-.208.495.675.675 0 01-.494.208.675.675 0 01-.494-.208.673.673 0 01-.208-.494V8.49c0-.078-.039-.117-.117-.117h-3.666z" fill="#D9D9D9"/><ellipse cx="340.141" cy="21.138" rx="2.331" ry="1.685" fill="#D9D9D9"/><defs><linearGradient id="paint0_linear" x1="259.29" y1="24.182" x2="259.29" y2="86.343" gradientUnits="userSpaceOnUse"><stop stop-color="#fff"/><stop offset="0" stop-color="#E9F0FF"/><stop offset="1" stop-color="#fff"/></linearGradient><linearGradient id="paint1_linear" x1="259.857" y1="35.632" x2="259.857" y2="83.634" gradientUnits="userSpaceOnUse"><stop offset="0" stop-color="#A0E8ED"/><stop offset="1" stop-color="#fff"/></linearGradient><filter id="filter0_d" x=".817" y="7.182" width="516.946" height="92.161" filterUnits="userSpaceOnUse" color-interpolation-filters="sRGB"><feFlood flood-opacity="0" result="BackgroundImageFix"/><feColorMatrix in="SourceAlpha" values="0 0 0 0 0 0 0 0 0 0 0 0 0 0 0 0 0 0 127 0"/><feOffset dy="-2"/><feGaussianBlur stdDeviation="7.5"/><feColorMatrix values="0 0 0 0 0.513357 0 0 0 0 0.512865 0 0 0 0 0.5375 0 0 0 0.06 0"/><feBlend in2="BackgroundImageFix" result="effect1_dropShadow"/><feBlend in="SourceGraphic" in2="effect1_dropShadow" result="shape"/></filter></defs></svg>