<svg width="16" height="15" viewBox="0 0 16 15" fill="none" xmlns="http://www.w3.org/2000/svg">
<g clip-path="url(#clip0)">
<path d="M15.4329 0.283108C15.4306 0.265821 15.428 0.249187 15.4228 0.232227C15.4173 0.213636 15.4098 0.196676 15.4013 0.179389C15.3967 0.169931 15.3951 0.15982 15.3895 0.150687C15.3859 0.144817 15.3801 0.140903 15.3758 0.135358C15.3651 0.120355 15.3524 0.107308 15.339 0.093936C15.3256 0.0805635 15.3122 0.0681695 15.2969 0.0574063C15.2914 0.0534924 15.2878 0.0479477 15.2822 0.0446862C15.2731 0.0391415 15.263 0.0378368 15.2535 0.0332706C15.2356 0.0244644 15.218 0.0169627 15.1991 0.0114181C15.1831 0.00717801 15.1674 0.0048949 15.1511 0.00293796C15.1319 0.000654852 15.1133 -0.000649779 15.094 0.000328694C15.0761 0.00130717 15.0588 0.0048949 15.0412 0.00913496C15.0301 0.0117442 15.0187 0.0107657 15.0076 0.0146796L0.656659 4.90705C0.526848 4.95075 0.43846 5.07176 0.43585 5.20907C0.433241 5.34638 0.516738 5.47065 0.645244 5.5199L7.35007 8.09622L10.2473 14.8033C10.2992 14.923 10.4173 15 10.5467 15C10.5523 15 10.5575 15 10.5631 14.9997C10.6991 14.9928 10.8161 14.9025 10.8576 14.773L15.4238 0.422051C15.427 0.41194 15.4261 0.401503 15.428 0.391066C15.4319 0.372801 15.4349 0.355188 15.4355 0.336597C15.4362 0.318333 15.4352 0.301046 15.4329 0.283108ZM1.71896 5.23353L13.8902 1.08415L7.51413 7.46021L1.71896 5.23353ZM10.5001 13.744L7.98216 7.91488L14.3954 1.50131L10.5001 13.744Z" fill="white"/>
<path d="M5.55847 9.87708C5.43094 9.74955 5.22481 9.74955 5.09728 9.87708L0.531071 14.4433C0.403543 14.5708 0.403543 14.7769 0.531071 14.9045C0.594671 14.9681 0.678168 15 0.761664 15C0.845161 15 0.928657 14.9681 0.992258 14.9045L5.55847 10.3383C5.686 10.2107 5.686 10.0046 5.55847 9.87708Z" fill="white"/>
<path d="M6.40194 12.1602L4.11884 14.4433C3.99131 14.5708 3.99131 14.7769 4.11884 14.9044C4.18244 14.968 4.26594 15 4.34943 15C4.43293 15 4.51643 14.968 4.58003 14.9044L6.86313 12.6213C6.99066 12.4938 6.99066 12.2877 6.86313 12.1602C6.7356 12.0326 6.52947 12.0326 6.40194 12.1602Z" fill="white"/>
<path d="M0.761664 11.4122C0.845161 11.4122 0.928657 11.3803 0.992258 11.3167L3.27536 9.03358C3.40289 8.90605 3.40289 8.69992 3.27536 8.57239C3.14784 8.44486 2.9417 8.44486 2.81418 8.57239L0.531071 10.8555C0.403543 10.983 0.403543 11.1892 0.531071 11.3167C0.594671 11.3803 0.678168 11.4122 0.761664 11.4122Z" fill="white"/>
</g>
<defs>
<clipPath id="clip0">
<rect width="15" height="15" fill="white" transform="translate(0.435303)"/>
</clipPath>
</defs>
</svg>
