<svg width="16" height="16" viewBox="0 0 16 16" fill="none" xmlns="http://www.w3.org/2000/svg">
<path d="M13.2057 10.5589C12.3888 9.74201 11.4165 9.13729 10.3556 8.77123C11.4918 7.98868 12.2383 6.67902 12.2383 5.19812C12.2383 2.80729 10.2932 0.862183 7.90234 0.862183C5.51151 0.862183 3.56641 2.80729 3.56641 5.19812C3.56641 6.67902 4.31286 7.98868 5.44908 8.77123C4.38824 9.13729 3.41594 9.74201 2.59905 10.5589C1.18249 11.9755 0.402344 13.8589 0.402344 15.8622H1.57422C1.57422 12.3728 4.413 9.53406 7.90234 9.53406C11.3917 9.53406 14.2305 12.3728 14.2305 15.8622H15.4023C15.4023 13.8589 14.6222 11.9755 13.2057 10.5589ZM7.90234 8.36218C6.15769 8.36218 4.73828 6.94281 4.73828 5.19812C4.73828 3.45343 6.15769 2.03406 7.90234 2.03406C9.647 2.03406 11.0664 3.45343 11.0664 5.19812C11.0664 6.94281 9.647 8.36218 7.90234 8.36218Z" fill="#BDBDBD"/>
</svg>
